<mxfile host="app.diagrams.net" modified="2023-08-21T11:38:50.095Z" agent="Mozilla/5.0 (Windows NT 10.0; Win64; x64) AppleWebKit/537.36 (KHTML, like Gecko) Chrome/116.0.0.0 Safari/537.36" etag="nVZ8zgJ7vU3ixQR_GSX6" version="21.6.8" type="github">
  <diagram name="Page-1" id="uZ_u43yUebAi84Exw6C1">
    <mxGraphModel dx="880" dy="478" grid="0" gridSize="10" guides="1" tooltips="1" connect="1" arrows="1" fold="1" page="1" pageScale="1" pageWidth="850" pageHeight="1100" math="0" shadow="0">
      <root>
        <mxCell id="0" />
        <mxCell id="1" parent="0" />
        <mxCell id="UpPIPAdZhEbqU8qjKnyP-1" value="" style="ellipse;whiteSpace=wrap;html=1;aspect=fixed;fillColor=#d5e8d4;strokeColor=#82b366;gradientColor=#97d077;" parent="1" vertex="1">
          <mxGeometry x="260" y="110" width="380" height="380" as="geometry" />
        </mxCell>
        <mxCell id="UpPIPAdZhEbqU8qjKnyP-3" value="" style="ellipse;whiteSpace=wrap;html=1;fillColor=#b0e3e6;strokeColor=#0e8088;" parent="1" vertex="1">
          <mxGeometry x="305" y="180" width="290" height="227" as="geometry" />
        </mxCell>
        <mxCell id="UpPIPAdZhEbqU8qjKnyP-5" value="" style="ellipse;whiteSpace=wrap;html=1;fillColor=#fff2cc;strokeColor=#d6b656;gradientColor=#ffd966;" parent="1" vertex="1">
          <mxGeometry x="310" y="210" width="239" height="122" as="geometry" />
        </mxCell>
        <mxCell id="UpPIPAdZhEbqU8qjKnyP-6" value="" style="ellipse;whiteSpace=wrap;html=1;aspect=fixed;fillColor=#f8cecc;gradientColor=#ea6b66;strokeColor=#b85450;" parent="1" vertex="1">
          <mxGeometry x="340" y="225" width="93" height="93" as="geometry" />
        </mxCell>
        <mxCell id="UpPIPAdZhEbqU8qjKnyP-7" value="&lt;b&gt;Machine Learning&lt;/b&gt;" style="text;html=1;strokeColor=none;fillColor=none;align=center;verticalAlign=middle;whiteSpace=wrap;rounded=0;" parent="1" vertex="1">
          <mxGeometry x="395" y="410" width="110" height="30" as="geometry" />
        </mxCell>
        <mxCell id="UpPIPAdZhEbqU8qjKnyP-8" value="&lt;b&gt;Deep Learning&lt;/b&gt;" style="text;html=1;strokeColor=none;fillColor=none;align=center;verticalAlign=middle;whiteSpace=wrap;rounded=0;" parent="1" vertex="1">
          <mxGeometry x="360" y="330" width="90" height="30" as="geometry" />
        </mxCell>
        <mxCell id="UpPIPAdZhEbqU8qjKnyP-9" value="&lt;b&gt;AI&lt;/b&gt;&lt;br&gt;Computer Vision, Speech, Text" style="text;html=1;strokeColor=none;fillColor=none;align=center;verticalAlign=middle;whiteSpace=wrap;rounded=0;" parent="1" vertex="1">
          <mxGeometry x="435" y="270" width="76" height="30" as="geometry" />
        </mxCell>
        <mxCell id="UpPIPAdZhEbqU8qjKnyP-10" value="&lt;b&gt;Gen AI&lt;/b&gt;" style="text;html=1;strokeColor=none;fillColor=none;align=center;verticalAlign=middle;whiteSpace=wrap;rounded=0;" parent="1" vertex="1">
          <mxGeometry x="348" y="236" width="60" height="30" as="geometry" />
        </mxCell>
        <mxCell id="UpPIPAdZhEbqU8qjKnyP-11" value="Supervised, Unsupervised" style="text;html=1;strokeColor=none;fillColor=none;align=center;verticalAlign=middle;whiteSpace=wrap;rounded=0;" parent="1" vertex="1">
          <mxGeometry x="413" y="440" width="60" height="30" as="geometry" />
        </mxCell>
        <mxCell id="UpPIPAdZhEbqU8qjKnyP-12" value="ONNX, NLP,pytorch, tensorflow" style="text;html=1;strokeColor=none;fillColor=none;align=center;verticalAlign=middle;whiteSpace=wrap;rounded=0;" parent="1" vertex="1">
          <mxGeometry x="380" y="360" width="120" height="30" as="geometry" />
        </mxCell>
        <mxCell id="UpPIPAdZhEbqU8qjKnyP-13" value="Summarization,&lt;br&gt;Content Creation" style="text;html=1;strokeColor=none;fillColor=none;align=center;verticalAlign=middle;whiteSpace=wrap;rounded=0;" parent="1" vertex="1">
          <mxGeometry x="353" y="275" width="60" height="30" as="geometry" />
        </mxCell>
      </root>
    </mxGraphModel>
  </diagram>
</mxfile>
